<svg width="35" height="35" viewBox="0 0 35 35" fill="none" xmlns="http://www.w3.org/2000/svg">
<path d="M16.7292 17.8761C21.4121 17.8761 25.2083 14.0798 25.2083 9.39689C25.2083 4.71398 21.4121 0.917725 16.7292 0.917725C12.0463 0.917725 8.25 4.71398 8.25 9.39689C8.25 14.0798 12.0463 17.8761 16.7292 17.8761Z" fill="#D92832"/>
<path fill-rule="evenodd" clip-rule="evenodd" d="M18.9261 32.5405C17.2641 30.7602 16.3409 28.4147 16.3438 25.9792C16.3438 23.3845 17.3721 21.0273 19.0433 19.2945C18.2878 19.2359 17.5155 19.2051 16.7292 19.2051C11.6078 19.2051 7.07375 20.4862 4.25867 22.4056C2.11113 23.8702 0.927128 25.731 0.927128 27.6842V29.9197C0.926519 30.264 0.993893 30.6051 1.12539 30.9233C1.25688 31.2416 1.44991 31.5307 1.69339 31.7742C1.93688 32.0177 2.22604 32.2107 2.54429 32.3422C2.86254 32.4737 3.20362 32.5411 3.54796 32.5405H18.9261Z" fill="#D92832"/>
<path fill-rule="evenodd" clip-rule="evenodd" d="M25.9792 17.8853C21.5115 17.8853 17.8855 21.5113 17.8855 25.979C17.8855 30.4468 21.5115 34.0728 25.9792 34.0728C30.447 34.0728 34.073 30.4468 34.073 25.979C34.073 21.5113 30.447 17.8853 25.9792 17.8853ZM24.823 25.979V29.8332C24.823 30.1398 24.9448 30.4339 25.1617 30.6508C25.3785 30.8676 25.6726 30.9894 25.9792 30.9894C26.2859 30.9894 26.58 30.8676 26.7968 30.6508C27.0137 30.4339 27.1355 30.1398 27.1355 29.8332V25.979C27.1355 25.6723 27.0137 25.3782 26.7968 25.1614C26.58 24.9446 26.2859 24.8228 25.9792 24.8228C25.6726 24.8228 25.3785 24.9446 25.1617 25.1614C24.9448 25.3782 24.823 25.6723 24.823 25.979ZM25.9792 20.9686C26.3881 20.9686 26.7803 21.131 27.0694 21.4201C27.3585 21.7092 27.5209 22.1014 27.5209 22.5103C27.5209 22.9191 27.3585 23.3113 27.0694 23.6004C26.7803 23.8895 26.3881 24.0519 25.9792 24.0519C25.5704 24.0519 25.1782 23.8895 24.8891 23.6004C24.6 23.3113 24.4376 22.9191 24.4376 22.5103C24.4376 22.1014 24.6 21.7092 24.8891 21.4201C25.1782 21.131 25.5704 20.9686 25.9792 20.9686Z" fill="#D92832"/>
</svg>
