<svg width="34" height="34" viewBox="0 0 34 34" fill="none" xmlns="http://www.w3.org/2000/svg">
<g clip-path="url(#clip0_4001_8)">
<path d="M2.98828 16.0039H13.0156C14.6634 16.0039 16.0039 14.6634 16.0039 13.0156V2.98828C16.0039 1.34048 14.6634 0 13.0156 0H2.98828C1.34048 0 0 1.34048 0 2.98828V13.0156C0 14.6634 1.34048 16.0039 2.98828 16.0039ZM5.04688 7.03906H7.03906V5.04688C7.03906 4.4963 7.48458 4.05078 8.03516 4.05078C8.58573 4.05078 9.03125 4.4963 9.03125 5.04688V7.03906H11.0234C11.574 7.03906 12.0195 7.48458 12.0195 8.03516C12.0195 8.58573 11.574 9.03125 11.0234 9.03125H9.03125V11.0234C9.03125 11.574 8.58573 12.0195 8.03516 12.0195C7.48458 12.0195 7.03906 11.574 7.03906 11.0234V9.03125H5.04688C4.4963 9.03125 4.05078 8.58573 4.05078 8.03516C4.05078 7.48458 4.4963 7.03906 5.04688 7.03906ZM31.0117 0H20.9844C19.3366 0 17.9961 1.34048 17.9961 2.98828V13.0156C17.9961 14.6634 19.3366 16.0039 20.9844 16.0039H31.0117C32.6595 16.0039 34 14.6634 34 13.0156V2.98828C34 1.34048 32.6595 0 31.0117 0ZM29.0195 9.03125H22.9766C22.426 9.03125 21.9805 8.58573 21.9805 8.03516C21.9805 7.48458 22.426 7.03906 22.9766 7.03906H29.0195C29.5701 7.03906 30.0156 7.48458 30.0156 8.03516C30.0156 8.58573 29.5701 9.03125 29.0195 9.03125ZM31.0117 17.9961H20.9844C19.3366 17.9961 17.9961 19.3366 17.9961 20.9844V31.0117C17.9961 32.6595 19.3366 34 20.9844 34H31.0117C32.6595 34 34 32.6595 34 31.0117V20.9844C34 19.3366 32.6595 17.9961 31.0117 17.9961ZM29.0195 28.9531H22.9766C22.426 28.9531 21.9805 28.5076 21.9805 27.957C21.9805 27.4065 22.426 26.9609 22.9766 26.9609H29.0195C29.5701 26.9609 30.0156 27.4065 30.0156 27.957C30.0156 28.5076 29.5701 28.9531 29.0195 28.9531ZM29.0195 24.9688H22.9766C22.426 24.9688 21.9805 24.5232 21.9805 23.9727C21.9805 23.4221 22.426 22.9766 22.9766 22.9766H29.0195C29.5701 22.9766 30.0156 23.4221 30.0156 23.9727C30.0156 24.5232 29.5701 24.9688 29.0195 24.9688ZM16.0039 31.0117V20.9844C16.0039 19.3366 14.6634 17.9961 13.0156 17.9961H2.98828C1.34048 17.9961 0 19.3366 0 20.9844V31.0117C0 32.6595 1.34048 34 2.98828 34H13.0156C14.6634 34 16.0039 32.6595 16.0039 31.0117ZM10.8522 27.3734C11.2413 27.7625 11.2413 28.3929 10.8522 28.7819C10.4632 29.171 9.83277 29.171 9.4437 28.7819L8.03516 27.3734L6.62661 28.7819C6.23754 29.171 5.60714 29.171 5.21807 28.7819C4.829 28.3929 4.829 27.7625 5.21807 27.3734L6.62661 25.9648L5.21807 24.5563C4.829 24.1672 4.829 23.5368 5.21807 23.1478C5.60714 22.7587 6.23754 22.7587 6.62661 23.1478L8.03516 24.5563L9.4437 23.1478C9.83277 22.7587 10.4632 22.7587 10.8522 23.1478C11.2413 23.5368 11.2413 24.1672 10.8522 24.5563L9.4437 25.9648L10.8522 27.3734Z" fill="#D92832"/>
</g>
<defs>
<clipPath id="clip0_4001_8">
<rect width="34" height="34" fill="white"/>
</clipPath>
</defs>
</svg>
