<svg width="20" height="20" viewBox="0 0 20 20" fill="none" xmlns="http://www.w3.org/2000/svg">
<path d="M19.6643 9.16879L16.6332 6.13771V2.63631C16.6332 2.0032 16.1202 1.49012 15.4861 1.49012C14.8536 1.49012 14.3405 2.0032 14.3405 2.63631V3.84507L12.0836 1.58811C10.9678 0.472888 9.02778 0.474866 7.9145 1.59012L0.335668 9.16879C-0.111727 9.61708 -0.111727 10.3424 0.335668 10.79C0.783266 11.2382 1.51003 11.2382 1.95747 10.79L9.53557 3.21115C9.78244 2.96558 10.2176 2.96558 10.4631 3.21043L18.0425 10.79C18.1489 10.8966 18.2753 10.981 18.4144 11.0386C18.5536 11.0962 18.7027 11.1258 18.8532 11.1256C19.1468 11.1256 19.4403 11.014 19.6643 10.79C20.1119 10.3425 20.1119 9.61712 19.6643 9.16879Z" fill="#D92832"/>
<path d="M10.3981 5.38697C10.178 5.16691 9.82144 5.16691 9.6019 5.38697L2.93555 12.0514C2.82992 12.1572 2.7706 12.3006 2.77063 12.4501V17.3108C2.77063 18.4515 3.69546 19.3762 4.83603 19.3762H8.13655V14.2648H11.8628V19.3762H15.1633C16.3039 19.3762 17.2287 18.4515 17.2287 17.3109V12.4501C17.2287 12.3002 17.1696 12.1566 17.0638 12.0514L10.3981 5.38697Z" fill="#D92832"/>
</svg>
