<svg width="25" height="25" viewBox="0 0 25 25" fill="none" xmlns="http://www.w3.org/2000/svg">
<path d="M24.9756 7.35007C24.917 6.02168 24.7022 5.10852 24.3945 4.31715C24.077 3.47719 23.5886 2.72519 22.9489 2.10002C22.3236 1.46513 21.5667 0.971772 20.7364 0.659308C19.9406 0.351631 19.0321 0.136745 17.7037 0.0782379C16.3654 0.0146513 15.9406 0 12.5464 0C9.15217 0 8.72733 0.0146513 7.39401 0.0732565C6.06568 0.131862 5.15246 0.346845 4.36134 0.654327C3.52114 0.971772 2.76914 1.46015 2.14397 2.10002C1.50908 2.72514 1.01596 3.48213 0.703254 4.31237C0.395577 5.10852 0.18074 6.0168 0.122183 7.34509C0.0586455 8.68338 0.0439453 9.10822 0.0439453 12.5024C0.0439453 15.8967 0.0586455 16.3215 0.117202 17.6548C0.175807 18.9832 0.39079 19.8964 0.698517 20.6877C1.01596 21.5277 1.50908 22.2797 2.14397 22.9049C2.76914 23.5398 3.52612 24.0331 4.35636 24.3456C5.15241 24.6533 6.0607 24.8681 7.38928 24.9266C8.72235 24.9854 9.14743 24.9999 12.5417 24.9999C15.9359 24.9999 16.3607 24.9854 17.694 24.9266C19.0224 24.8681 19.9356 24.6533 20.7267 24.3456C21.5576 24.0243 22.3122 23.533 22.9422 22.9031C23.5721 22.2732 24.0635 21.5186 24.3848 20.6877C24.6923 19.8916 24.9073 18.9832 24.9659 17.6548C25.0245 16.3215 25.0391 15.8967 25.0391 12.5024C25.0391 9.10822 25.0341 8.68334 24.9756 7.35007ZM22.7243 17.5571C22.6705 18.7781 22.4654 19.4374 22.2945 19.8769C21.8744 20.966 21.01 21.8304 19.9209 22.2505C19.4813 22.4215 18.8173 22.6265 17.6011 22.6801C16.2825 22.7389 15.887 22.7534 12.5514 22.7534C9.21571 22.7534 8.81529 22.7389 7.50141 22.6801C6.28047 22.6265 5.62116 22.4215 5.18162 22.2505C4.63967 22.0502 4.14636 21.7328 3.74589 21.3176C3.33077 20.9123 3.01332 20.4239 2.81299 19.8819C2.64206 19.4424 2.43699 18.7781 2.38342 17.5621C2.32462 16.2435 2.31016 15.8478 2.31016 12.5122C2.31016 9.1765 2.32462 8.77608 2.38342 7.46244C2.43699 6.2415 2.64206 5.58219 2.81299 5.14265C3.01332 4.60046 3.33077 4.10725 3.75087 3.70668C4.15603 3.29156 4.64441 2.97412 5.1866 2.77403C5.62614 2.6031 6.29043 2.39798 7.50639 2.34421C8.82501 2.2856 9.22069 2.27095 12.5561 2.27095C15.8968 2.27095 16.2922 2.2856 17.6061 2.34421C18.827 2.39803 19.4863 2.60305 19.9259 2.77398C20.4678 2.97412 20.9612 3.29156 21.3616 3.70668C21.7767 4.11208 22.0942 4.60046 22.2945 5.14265C22.4654 5.58219 22.6705 6.24624 22.7243 7.46244C22.7829 8.78106 22.7975 9.1765 22.7975 12.5122C22.7975 15.8478 22.7829 16.2385 22.7243 17.5571Z" fill="white"/>
<path d="M12.5464 6.08032C9.0009 6.08032 6.12427 8.95676 6.12427 12.5025C6.12427 16.0482 9.0009 18.9246 12.5464 18.9246C16.092 18.9246 18.9686 16.0482 18.9686 12.5025C18.9686 8.95676 16.092 6.08032 12.5464 6.08032ZM12.5464 16.6683C10.2463 16.6683 8.38047 14.8028 8.38047 12.5025C8.38047 10.2021 10.2463 8.33662 12.5464 8.33662C14.8467 8.33662 16.7123 10.2021 16.7123 12.5025C16.7123 14.8028 14.8467 16.6683 12.5464 16.6683ZM20.7219 5.82637C20.7219 6.65436 20.0506 7.32568 19.2224 7.32568C18.3945 7.32568 17.7232 6.65436 17.7232 5.82637C17.7232 4.99828 18.3945 4.32715 19.2225 4.32715C20.0506 4.32715 20.7219 4.99823 20.7219 5.82637Z" fill="white"/>
</svg>
