<svg width="25" height="25" viewBox="0 0 25 25" fill="none" xmlns="http://www.w3.org/2000/svg">
<path d="M24.1 24.0999V15.6029C24.1 11.4269 23.201 8.2369 18.329 8.2369C15.98 8.2369 14.414 9.5129 13.776 10.7309H13.718V8.6139H9.10702V24.0999H13.921V16.4149C13.921 14.3849 14.298 12.4419 16.792 12.4419C19.257 12.4419 19.286 14.7329 19.286 16.5309V24.0709H24.1V24.0999ZM1.27702 8.6139H6.09102V24.0999H1.27702V8.6139ZM3.68402 0.899902C2.14702 0.899902 0.900024 2.1469 0.900024 3.6839C0.900024 5.2209 2.14702 6.4969 3.68402 6.4969C5.22102 6.4969 6.46802 5.2209 6.46802 3.6839C6.46802 2.1469 5.22102 0.899902 3.68402 0.899902Z" fill="white"/>
</svg>
