<svg width="100" height="112" viewBox="0 0 100 112" fill="none" xmlns="http://www.w3.org/2000/svg">
<ellipse cx="63" cy="37.5" rx="37" ry="37.5" fill="white" fill-opacity="0.4"/>
<path fill-rule="evenodd" clip-rule="evenodd" d="M75.5695 109.833C75.5255 110.188 75.3423 110.511 75.0602 110.731C74.7781 110.951 74.4202 111.05 74.0651 111.006C73.4642 110.929 72.8673 110.823 72.2766 110.688C71.689 110.555 71.1082 110.395 70.5363 110.206C70.2006 110.092 69.9234 109.85 69.7649 109.533C69.6063 109.216 69.5792 108.849 69.6894 108.512C69.7996 108.175 70.0382 107.895 70.3535 107.733C70.6688 107.571 71.0353 107.539 71.3736 107.646C71.8658 107.809 72.3658 107.949 72.8716 108.064C73.3753 108.176 73.8842 108.265 74.3965 108.329C74.7516 108.373 75.0746 108.556 75.2945 108.838C75.5145 109.12 75.6134 109.478 75.5695 109.833ZM82.2736 107.378C81.8243 107.552 81.3675 107.706 80.9044 107.839C80.4438 107.97 79.9776 108.081 79.507 108.17C79.1619 108.243 78.859 108.448 78.6634 108.741C78.4677 109.035 78.3949 109.393 78.4605 109.739C78.5261 110.086 78.725 110.393 79.0144 110.594C79.3038 110.796 79.6607 110.876 80.0085 110.817C80.5608 110.711 81.1081 110.579 81.6486 110.423C82.1866 110.269 82.7173 110.091 83.2393 109.889C83.5698 109.759 83.8357 109.504 83.9788 109.179C84.1219 108.854 84.1307 108.485 84.0033 108.154C83.8758 107.823 83.6225 107.555 83.2985 107.41C82.9745 107.264 82.6061 107.253 82.2738 107.378H82.2736ZM66.9056 105.336C66.5163 105.049 66.1401 104.745 65.778 104.424C65.4145 104.104 65.0655 103.768 64.7319 103.417C64.4853 103.162 64.1481 103.015 63.7936 103.007C63.4391 103 63.096 103.132 62.8387 103.376C62.5814 103.62 62.4307 103.956 62.4194 104.31C62.4081 104.665 62.5371 105.009 62.7784 105.269C63.1654 105.679 63.5706 106.071 63.9928 106.445C64.4157 106.818 64.8552 107.172 65.3099 107.505C65.4523 107.61 65.614 107.686 65.7857 107.728C65.9574 107.77 66.1357 107.778 66.3105 107.752C66.4853 107.725 66.6531 107.664 66.8045 107.573C66.9558 107.481 67.0876 107.361 67.1923 107.218C67.2971 107.076 67.3728 106.914 67.4151 106.743C67.4575 106.571 67.4655 106.393 67.4389 106.218C67.4123 106.043 67.3515 105.875 67.26 105.724C67.1685 105.572 67.0481 105.441 66.9056 105.336ZM86.9974 76.7392L87.5522 76.6848C87.9026 76.6446 88.2233 76.4684 88.4451 76.1942C88.6669 75.9199 88.7721 75.5696 88.7382 75.2185C88.7043 74.8674 88.5338 74.5437 88.2636 74.317C87.9934 74.0903 87.6449 73.9788 87.2933 74.0064L82.1275 74.5127C81.181 74.6039 80.6123 75.6399 81.075 76.4928L83.4134 80.7844C83.5856 81.0938 83.8729 81.3227 84.2129 81.4216C84.5529 81.5205 84.9182 81.4813 85.2294 81.3124C85.5407 81.1436 85.7728 80.8589 85.8754 80.52C85.978 80.1811 85.9428 79.8154 85.7774 79.5023L85.4868 78.9692C89.937 81.9837 92.5844 86.972 92.575 92.3586C92.5665 97.2344 90.3727 101.817 86.5803 104.883C86.3075 105.109 86.1349 105.433 86.0999 105.786C86.0648 106.138 86.1703 106.49 86.3933 106.766C86.6163 107.041 86.9389 107.217 87.291 107.256C87.6431 107.295 87.9964 107.193 88.274 106.973C92.702 103.394 95.2639 98.0581 95.2739 92.3632C95.2849 86.0888 92.1777 80.2532 86.9972 76.7392H86.9974ZM4.91503 97.3033C4.50711 96.7381 4.28834 96.0583 4.29 95.3613L4.42495 18.3191C4.42823 16.488 5.92429 14.9969 7.75561 15L37.205 15.0517L66.6544 15.1031C68.4858 15.1064 69.9766 16.6027 69.9735 18.4338L69.8939 63.946L58.6634 83.3199L47.3861 70.9345C47.1255 70.6507 46.7615 70.4957 46.374 70.4932C46.1838 70.4947 45.996 70.5365 45.8232 70.616C45.6504 70.6955 45.4964 70.8107 45.3715 70.9541L27.3515 91.5373L18.0009 84.7792C17.7327 84.5855 17.4027 84.497 17.0736 84.5305C16.7445 84.564 16.4391 84.7172 16.2155 84.961L4.91484 97.3035L4.91503 97.3033ZM19.1 57.2492C19.0999 57.1182 19.0478 56.9925 18.9553 56.8997C18.8628 56.8069 18.7373 56.7545 18.6063 56.7539L17.6755 56.7524L17.6836 52.1038C17.6839 51.9266 17.6493 51.751 17.5817 51.5872C17.5142 51.4233 17.415 51.2744 17.2899 51.1489C17.1648 51.0233 17.0162 50.9237 16.8526 50.8556C16.689 50.7875 16.5136 50.7523 16.3364 50.7519C16.1591 50.7516 15.9836 50.7863 15.8197 50.8538C15.6559 50.9213 15.5069 51.0205 15.3814 51.1456C15.2559 51.2707 15.1562 51.4193 15.0881 51.5829C15.02 51.7465 14.9848 51.9219 14.9845 52.0992L14.9764 56.7477L14.0456 56.7462C13.9146 56.7464 13.789 56.7984 13.6962 56.8909C13.6033 56.9833 13.5509 57.1087 13.5501 57.2397L13.5336 66.6615C13.5338 66.7925 13.5858 66.9181 13.6783 67.011C13.7708 67.1038 13.8963 67.1563 14.0273 67.1569L14.9581 67.1585L14.95 71.807C14.9494 72.165 15.091 72.5085 15.3436 72.762C15.5963 73.0155 15.9393 73.1583 16.2972 73.1589C16.6551 73.1595 16.9986 73.0179 17.2522 72.7653C17.5057 72.5126 17.6485 72.1696 17.6491 71.8117L17.6572 67.1631L18.588 67.1646C18.719 67.1644 18.8447 67.1124 18.9375 67.0199C19.0303 66.9274 19.0828 66.8019 19.0834 66.6709L19.1 57.2492ZM29.4876 66.0624C29.4874 65.9314 29.4354 65.8058 29.3429 65.7129C29.2504 65.6201 29.1249 65.5677 28.9939 65.5672L28.0631 65.5656L28.0712 60.917C28.0715 60.7398 28.0369 60.5643 27.9693 60.4004C27.9018 60.2366 27.8026 60.0876 27.6775 59.9621C27.4249 59.7086 27.0819 59.5658 26.7239 59.5652C26.366 59.5646 26.0225 59.7062 25.769 59.9588C25.5155 60.2115 25.3727 60.5545 25.3721 60.9124L25.364 65.561L24.4332 65.5595C24.3022 65.5596 24.1765 65.6116 24.0837 65.7041C23.9909 65.7965 23.9384 65.922 23.9377 66.053L23.9211 75.4747C23.9213 75.6057 23.9734 75.7314 24.0659 75.8242C24.1584 75.917 24.2838 75.9695 24.4149 75.9702L25.3457 75.9717L25.3376 80.6203C25.337 80.9782 25.4786 81.3217 25.7312 81.5752C25.9839 81.8288 26.3269 81.9715 26.6848 81.9721C27.0427 81.9728 27.3862 81.8312 27.6397 81.5785C27.8933 81.3259 28.036 80.9828 28.0366 80.6249L28.0447 75.9763L28.9755 75.9779C29.1066 75.9777 29.2322 75.9257 29.3251 75.8332C29.4179 75.7407 29.4704 75.6152 29.471 75.4841L29.4876 66.0624ZM50.3245 48.509C50.3243 48.378 50.2723 48.2523 50.1798 48.1595C50.0872 48.0667 49.9618 48.0143 49.8307 48.0137L48.8999 48.0122L48.908 43.3636C48.9087 43.0057 48.7671 42.6622 48.5144 42.4086C48.2618 42.1551 47.9188 42.0123 47.5609 42.0117C47.203 42.011 46.8595 42.1526 46.6059 42.4052C46.3524 42.6579 46.2096 43.0009 46.2089 43.3588L46.2008 48.0074L45.2701 48.0058C45.139 48.006 45.0134 48.058 44.9206 48.1505C44.8278 48.243 44.7753 48.3684 44.7746 48.4994L44.758 57.9211C44.7582 58.0521 44.8102 58.1778 44.9027 58.2706C44.9952 58.3634 45.1207 58.4159 45.2517 58.4165L46.1825 58.4181L46.1744 63.0667C46.1738 63.4246 46.3154 63.7681 46.568 64.0216C46.8206 64.2752 47.1636 64.418 47.5216 64.4186C47.8795 64.4193 48.223 64.2777 48.4765 64.025C48.7301 63.7724 48.8729 63.4294 48.8735 63.0715L48.8816 58.4229L49.8124 58.4245C49.9434 58.4243 50.0691 58.3722 50.1619 58.2797C50.2547 58.1872 50.3072 58.0618 50.3079 57.9307L50.3245 48.509ZM60.712 57.3221C60.7119 57.191 60.6599 57.0654 60.5673 56.9726C60.4748 56.8798 60.3493 56.8274 60.2183 56.8268L59.2873 56.8252L59.2954 52.1767C59.2957 51.9994 59.2611 51.8239 59.1936 51.6601C59.126 51.4962 59.0269 51.3473 58.9018 51.2217C58.7767 51.0962 58.6281 50.9965 58.4645 50.9284C58.3008 50.8603 58.1254 50.8251 57.9482 50.8248C57.771 50.8245 57.5954 50.8591 57.4316 50.9267C57.2677 50.9942 57.1188 51.0934 56.9932 51.2185C56.8677 51.3436 56.768 51.4922 56.6999 51.6558C56.6318 51.8194 56.5966 51.9948 56.5963 52.172L56.5882 56.8206L55.6574 56.8191C55.5264 56.8193 55.4008 56.8713 55.308 56.9637C55.2152 57.0562 55.1627 57.1816 55.162 57.3126L55.1454 66.7343C55.1456 66.8654 55.1976 66.991 55.2901 67.0838C55.3826 67.1767 55.5081 67.2291 55.6391 67.2298L56.5699 67.2313L56.5618 71.8799C56.5594 72.0585 56.5924 72.2357 56.659 72.4014C56.7256 72.5671 56.8244 72.7179 56.9497 72.8451C57.075 72.9724 57.2243 73.0735 57.389 73.1426C57.5536 73.2117 57.7304 73.2474 57.9089 73.2477C58.0875 73.248 58.2643 73.2129 58.4292 73.1444C58.5941 73.0758 58.7438 72.9752 58.8695 72.8484C58.9952 72.7216 59.0946 72.5712 59.1617 72.4057C59.2289 72.2402 59.2625 72.0631 59.2607 71.8845L59.2688 67.236L60.1998 67.2375C60.3308 67.2374 60.4565 67.1853 60.5493 67.0928C60.6421 67.0003 60.6945 66.8748 60.6951 66.7438L60.7116 57.3221H60.712ZM48.7594 26.1107C48.7591 26.288 48.7937 26.4635 48.8612 26.6274C48.9288 26.7912 49.0279 26.9402 49.153 27.0657C49.2781 27.1912 49.4267 27.2909 49.5903 27.359C49.7539 27.4271 49.9294 27.4623 50.1066 27.4626L59.7091 27.4794C59.8864 27.4797 60.0619 27.4451 60.2258 27.3775C60.3896 27.31 60.5385 27.2108 60.6641 27.0857C60.7896 26.9606 60.8893 26.812 60.9574 26.6484C61.0255 26.4848 61.0607 26.3094 61.061 26.1321C61.0613 25.9549 61.0267 25.7794 60.9591 25.6155C60.8916 25.4517 60.7924 25.3027 60.6674 25.1772C60.5422 25.0517 60.3937 24.952 60.23 24.8839C60.0664 24.8158 59.891 24.7806 59.7138 24.7803L50.1112 24.7635C49.934 24.7632 49.7585 24.7978 49.5946 24.8654C49.4308 24.9329 49.2818 25.0321 49.1563 25.1572C49.0308 25.2823 48.9311 25.4309 48.863 25.5945C48.7949 25.7581 48.7597 25.9335 48.7594 26.1107ZM40.2241 31.4806C40.2238 31.6578 40.2584 31.8333 40.326 31.9972C40.3935 32.161 40.4927 32.31 40.6178 32.4355C40.7429 32.561 40.8915 32.6607 41.0551 32.7288C41.2187 32.7969 41.3941 32.8321 41.5714 32.8324L59.6997 32.8642C59.8782 32.8666 60.0555 32.8336 60.2212 32.767C60.3869 32.7004 60.5377 32.6016 60.6649 32.4763C60.7922 32.351 60.8932 32.2017 60.9623 32.0371C61.0315 31.8724 61.0672 31.6957 61.0675 31.5171C61.0678 31.3385 61.0327 31.1617 60.9641 30.9968C60.8956 30.8319 60.795 30.6823 60.6682 30.5565C60.5414 30.4308 60.3909 30.3315 60.2255 30.2643C60.06 30.1972 59.8829 30.1635 59.7043 30.1653L41.576 30.1335C41.3988 30.1332 41.2232 30.1678 41.0594 30.2354C40.8955 30.3029 40.7466 30.4021 40.621 30.5272C40.4955 30.6523 40.3958 30.8009 40.3277 30.9645C40.2596 31.1281 40.2244 31.3033 40.2241 31.4806ZM40.2147 36.8652C40.2144 37.0424 40.249 37.218 40.3165 37.3818C40.3841 37.5457 40.4832 37.6946 40.6083 37.8202C40.7334 37.9457 40.882 38.0453 41.0456 38.1134C41.2093 38.1815 41.3847 38.2168 41.5619 38.2171L59.6902 38.2489C60.0482 38.2495 60.3917 38.1079 60.6452 37.8552C60.8987 37.6026 61.0415 37.2596 61.0421 36.9016C61.0427 36.5437 60.9011 36.2002 60.6485 35.9467C60.3958 35.6932 60.0528 35.5504 59.6949 35.5498L41.5665 35.518C41.3893 35.5177 41.2138 35.5523 41.0499 35.6198C40.8861 35.6874 40.7371 35.7865 40.6116 35.9116C40.4861 36.0367 40.3864 36.1853 40.3183 36.3489C40.2502 36.5126 40.215 36.688 40.2147 36.8652ZM35.7824 56.784L34.8516 56.7824C34.7206 56.7826 34.595 56.8347 34.5022 56.9271C34.4094 57.0196 34.3569 57.145 34.3561 57.276L34.3396 66.6977C34.3398 66.8287 34.3918 66.9544 34.4843 67.0472C34.5768 67.14 34.7023 67.1925 34.8333 67.1932L35.7641 67.1947L35.756 71.8433C35.7557 72.0205 35.7903 72.1961 35.8578 72.3599C35.9254 72.5238 36.0245 72.6727 36.1496 72.7982C36.2747 72.9238 36.4233 73.0234 36.587 73.0915C36.7506 73.1596 36.926 73.1948 37.1032 73.1951C37.2805 73.1954 37.456 73.1608 37.6199 73.0933C37.7837 73.0258 37.9326 72.9266 38.0582 72.8015C38.1837 72.6764 38.2834 72.5278 38.3515 72.3642C38.4196 72.2006 38.4548 72.0251 38.4551 71.8479L38.4632 67.1993L39.394 67.2009C39.525 67.2007 39.6507 67.1486 39.7435 67.0561C39.8363 66.9636 39.8888 66.8382 39.8894 66.7071L39.906 57.2854C39.9059 57.1544 39.8539 57.0287 39.7613 56.9359C39.6688 56.8431 39.5433 56.7907 39.4123 56.7902L38.4815 56.7886L38.4896 52.14C38.4899 51.9628 38.4553 51.7873 38.3877 51.6234C38.3202 51.4596 38.2211 51.3106 38.096 51.1851C37.8433 50.9316 37.5003 50.7888 37.1424 50.7882C36.7844 50.7876 36.4409 50.9292 36.1874 51.1818C35.9339 51.4345 35.7911 51.7775 35.7905 52.1354L35.7824 56.784ZM11.2054 34.122C11.1937 40.8649 16.6834 46.3739 23.4262 46.3856C30.1691 46.3974 35.6781 40.9076 35.6899 34.1648C35.7016 27.4219 30.2119 21.9129 23.469 21.9012C16.7262 21.8894 11.2172 27.3791 11.2054 34.122ZM62.4984 92.3059C62.5077 86.9909 65.4886 82.3758 69.8658 80.0288L69.875 74.7394L80.6582 56.137L80.7667 57.2912C80.8361 58.0339 81.4949 58.5785 82.2366 58.5102C82.4131 58.4937 82.5847 58.4426 82.7414 58.3597C82.8982 58.2768 83.0371 58.1638 83.1501 58.0272C83.2631 57.8906 83.3481 57.733 83.4002 57.5636C83.4523 57.3941 83.4705 57.216 83.4537 57.0394L82.953 51.6814C82.9323 51.4672 82.861 51.2609 82.745 51.0796C82.629 50.8983 82.4716 50.7472 82.2857 50.6386C82.0993 50.5311 81.89 50.4696 81.6751 50.4592C81.4602 50.4489 81.2459 50.4898 81.0499 50.5788L76.1507 52.8069C75.4719 53.1142 75.1741 53.9156 75.4814 54.5927C75.7906 55.2715 76.5901 55.5723 77.2691 55.2631L78.3247 54.7826L71.3225 66.8621L69.8847 69.3424L60.0737 86.2677C59.9673 86.451 59.8192 86.6067 59.6414 86.722C59.4636 86.8373 59.2611 86.909 59.0504 86.9313C58.8395 86.9533 58.6263 86.9256 58.428 86.8506C58.2297 86.7755 58.0516 86.6552 57.9081 86.4991L46.4073 73.868L28.5707 94.2406C28.3495 94.4933 28.042 94.6544 27.7083 94.6923C27.3746 94.7302 27.0388 94.6422 26.7665 94.4455L17.3948 87.6697L0.354557 106.281C0.112771 106.545 -0.0143009 106.894 0.0012811 107.252C0.0168631 107.609 0.173824 107.946 0.437649 108.188C0.685512 108.416 1.0101 108.542 1.34685 108.542C1.53454 108.542 1.72031 108.504 1.89218 108.428C2.06406 108.353 2.21822 108.242 2.34474 108.104L10.9571 98.6975L37.0587 98.7432L64.0826 98.7907C63.0677 96.8521 62.4946 94.646 62.4986 92.3059H62.4984ZM23.4309 43.6867C26.7989 43.6927 29.7625 41.9528 31.4654 39.3206C30.2892 36.0277 27.1462 33.6685 23.4484 33.662C19.7507 33.6554 16.5993 36.0036 15.4115 39.2924C17.1054 41.9306 20.0626 43.6808 23.4309 43.6865V43.6867ZM23.4494 33.0562C25.6925 33.0601 27.5138 31.245 27.5179 29.002C27.5217 26.7589 25.7066 24.9374 23.4636 24.9336C21.2205 24.9297 19.3992 26.7448 19.3952 28.9878C19.3911 31.2307 21.2064 33.0524 23.4494 33.0562ZM87.6991 92.3501C87.6883 98.5468 82.6254 103.592 76.4286 103.581C70.2319 103.57 65.1867 98.5074 65.1975 92.3106C65.2083 86.1139 70.2712 81.0685 76.4679 81.0795C82.6646 81.0903 87.7099 86.1532 87.6991 92.3501ZM79.2225 91.8376C78.3862 91.3447 77.4943 91.1313 76.7075 90.9412C76.4399 90.8766 76.1854 90.8166 75.9394 90.7464C75.2587 90.5565 74.9003 90.3655 74.7391 90.105C74.7011 90.0408 74.5779 89.8455 74.8403 89.5747C75.1355 89.2668 75.9686 89.0098 76.9292 89.1444C77.6678 89.246 78.1311 89.5405 78.2643 89.7852C78.6154 90.4409 79.4346 90.6896 80.0902 90.3356C80.7469 89.9845 80.9927 89.1654 80.6408 88.5087C80.1269 87.5479 79.1078 86.8557 77.8072 86.5625L77.8084 85.8785C77.8088 85.7011 77.7742 85.5255 77.7067 85.3615C77.6392 85.1975 77.54 85.0484 77.4148 84.9228C77.2896 84.7972 77.1409 84.6975 76.9772 84.6294C76.8134 84.5613 76.6379 84.5261 76.4606 84.5259C76.2833 84.5255 76.1077 84.5601 75.9438 84.6276C75.7799 84.6952 75.6309 84.7944 75.5054 84.9196C75.3798 85.0448 75.2802 85.1935 75.2122 85.3572C75.1441 85.5209 75.109 85.6964 75.1089 85.8737L75.1077 86.5446C74.2907 86.7206 73.4945 87.0788 72.896 87.7003C71.8673 88.7692 71.6872 90.3067 72.448 91.5309C73.142 92.6462 74.289 93.086 75.2084 93.3458C75.5064 93.4291 75.7972 93.4993 76.0769 93.5649C76.7671 93.7324 77.3644 93.8747 77.8517 94.1627C78.3252 94.4423 78.3044 94.6235 78.2845 94.7721C78.2722 94.8762 78.2069 95.138 77.8822 95.2992C76.8386 95.8169 74.8394 95.5011 74.4328 94.7532C74.261 94.4393 73.9717 94.2062 73.6284 94.1053C73.285 94.0044 72.9156 94.0437 72.6013 94.2148C72.4456 94.2997 72.3082 94.4145 72.1968 94.5526C72.0855 94.6907 72.0025 94.8493 71.9525 95.0195C71.9025 95.1896 71.8865 95.368 71.9054 95.5443C71.9243 95.7207 71.9778 95.8916 72.0628 96.0472C72.6391 97.1066 73.8002 97.7833 75.0877 98.0766L75.0865 98.7818C75.0861 98.959 75.1207 99.1346 75.1881 99.2986C75.2556 99.4625 75.3547 99.6115 75.4798 99.7371C75.6048 99.8627 75.7534 99.9624 75.917 100.031C76.0807 100.099 76.2561 100.134 76.4334 100.134C76.7915 100.135 77.1351 99.9934 77.3888 99.7406C77.6425 99.4879 77.7853 99.1447 77.786 98.7866L77.7871 98.1398C78.252 98.0515 78.6917 97.9119 79.0814 97.7174C80.1211 97.2026 80.8244 96.2244 80.963 95.103C81.13 93.7577 80.5111 92.5978 79.2227 91.8373L79.2225 91.8376Z" fill="url(#paint0_linear_4008_8)"/>
<defs>
<linearGradient id="paint0_linear_4008_8" x1="47.6369" y1="111.016" x2="47.6369" y2="14.9998" gradientUnits="userSpaceOnUse">
<stop stop-color="#7D4294"/>
<stop offset="0.9999" stop-color="#D72535"/>
</linearGradient>
</defs>
</svg>
