<svg width="92" height="94" viewBox="0 0 92 94" fill="none" xmlns="http://www.w3.org/2000/svg">
<ellipse cx="55" cy="37.5" rx="37" ry="37.5" fill="white" fill-opacity="0.4"/>
<path fill-rule="evenodd" clip-rule="evenodd" d="M66.6562 19.9373C68.6214 19.9373 70.505 20.7177 71.8925 22.1064C73.2824 23.495 74.0625 25.3809 74.0625 27.3445V61.9057C74.0625 63.8693 73.2824 65.7551 71.8925 67.1438C70.505 68.5325 68.6214 69.3129 66.6562 69.3129H12.3438C10.3786 69.3129 8.49496 68.5325 7.10753 67.1438C5.71762 65.7551 4.9375 63.8693 4.9375 61.9057V27.3445C4.9375 25.3809 5.71762 23.495 7.10753 22.1064C8.49496 20.7177 10.3786 19.9373 12.3438 19.9373H66.6562ZM60.0845 45.7472C61.2028 45.9499 62.3829 45.8971 63.5407 45.5472C67.4537 44.364 69.6706 40.2258 68.4881 36.3125L66.3427 29.2247C65.1602 25.3087 61.025 23.0951 57.1096 24.2783L50.0218 26.4224C46.1088 27.6055 43.8919 31.7438 45.0744 35.6543C45.3336 36.5041 45.7286 37.2762 46.2323 37.9483L43.9437 36.2319C40.6726 33.7768 36.029 34.4406 33.575 37.7123L29.3707 43.317L27.0304 42.5365C24.369 41.6506 21.4337 42.3421 19.4513 44.3251L12.045 51.7323C9.15412 54.6235 9.15412 59.3145 12.045 62.2057C14.9335 65.0969 19.629 65.0969 22.5175 62.2057L26.6872 58.0369L29.7509 59.0562C32.7751 60.0643 36.1055 59.0256 38.0187 56.476L40.9813 52.5238L44.9313 55.4873C46.6298 56.7621 48.7948 57.2454 50.876 56.8149C52.9572 56.3844 54.752 55.0818 55.8061 53.2376L60.0845 45.7472ZM58.5316 38.5149L51.5179 50.788C51.331 51.1021 51.089 51.3699 50.8066 51.5748C50.5243 51.7798 50.2076 51.9175 49.8762 51.9795C49.1895 52.1255 48.4791 51.9673 47.8937 51.5379L39.9938 45.6138L34.0688 53.5126C33.4318 54.3624 32.3209 54.7096 31.3136 54.3735L25.3541 52.3878L19.0267 58.7145C18.0638 59.6783 16.4987 59.6783 15.5358 58.7145C14.573 57.7508 14.573 56.1872 15.5358 55.2234L22.9421 47.8163C23.285 47.4869 23.696 47.2598 24.1373 47.156C24.5787 47.0521 25.0361 47.0748 25.4676 47.2219L31.1853 49.1272L37.525 40.6757C38.3421 39.5842 39.8901 39.362 40.9813 40.1813L48.6196 45.911L54.7865 35.1155L52.9103 35.4793C51.5722 35.7404 50.2761 34.8655 50.0169 33.5268C49.7552 32.1909 50.6316 30.8939 51.9672 30.6328L59.2376 29.2192C60.5757 28.9581 61.8718 29.833 62.1335 31.1716L63.5456 38.4427C63.8073 39.7786 62.9309 41.0756 61.5953 41.3367C60.2573 41.595 58.9587 40.7202 58.6995 39.3843L58.5316 38.5149ZM46.9062 74.251V84.1245H54.3125C55.6752 84.1245 56.7812 85.2326 56.7812 86.5935C56.7812 87.9572 55.6752 89.0626 54.3125 89.0626H24.6875C23.3248 89.0626 22.2188 87.9572 22.2188 86.5935C22.2188 85.2326 23.3248 84.1245 24.6875 84.1245H32.0938V74.251H46.9062Z" fill="url(#paint0_linear_4014_7)"/>
<defs>
<linearGradient id="paint0_linear_4014_7" x1="39.5" y1="89.0627" x2="39.5" y2="19.9371" gradientUnits="userSpaceOnUse">
<stop stop-color="#7D4294"/>
<stop offset="0.9999" stop-color="#D72535"/>
</linearGradient>
</defs>
</svg>
