<svg width="92" height="94" viewBox="0 0 92 94" fill="none" xmlns="http://www.w3.org/2000/svg">
<ellipse cx="55" cy="37.5" rx="37" ry="37.5" fill="white" fill-opacity="0.4"/>
<g clip-path="url(#clip0_4014_11)">
<path d="M46.8462 46.8918C46.5188 46.8918 46.2049 47.0218 45.9734 47.2533C45.7419 47.4848 45.6118 47.7988 45.6118 48.1261V78.7806C45.6118 79.108 45.7419 79.422 45.9734 79.6534C46.2049 79.8849 46.5188 80.015 46.8462 80.015H54.5615C54.8889 80.015 55.2029 79.8849 55.4344 79.6534C55.6659 79.422 55.7959 79.108 55.7959 78.7806V48.1261C55.7959 47.7988 55.6659 47.4848 55.4344 47.2533C55.2029 47.0218 54.8889 46.8918 54.5615 46.8918H46.8462ZM53.3273 77.5462H48.0808V49.3605H53.3273V77.5462ZM32.5201 54.9896C32.1927 54.9896 31.8787 55.1196 31.6472 55.3511C31.4157 55.5826 31.2857 55.8966 31.2857 56.2239V78.7806C31.2857 79.108 31.4157 79.422 31.6472 79.6534C31.8787 79.8849 32.1927 80.015 32.5201 80.015H40.2354C40.5628 80.015 40.8767 79.8849 41.1082 79.6534C41.3397 79.422 41.4697 79.108 41.4697 78.7806V56.2239C41.4697 55.8966 41.3397 55.5826 41.1082 55.3511C40.8767 55.1196 40.5628 54.9896 40.2354 54.9896H32.5201ZM39.001 77.5464H33.7544V57.4585H39.001V77.5464ZM68.8875 39.6069H61.1722C60.8449 39.6069 60.5309 39.737 60.2994 39.9685C60.0679 40.2 59.9379 40.5139 59.9379 40.8413V78.7805C59.9379 79.1078 60.0679 79.4218 60.2994 79.6533C60.5309 79.8848 60.8449 80.0148 61.1722 80.0148H68.8875C69.2149 80.0148 69.5289 79.8848 69.7604 79.6533C69.9919 79.4218 70.1219 79.1078 70.1219 78.7805V40.8413C70.1219 40.5139 69.9919 40.2 69.7604 39.9685C69.5289 39.737 69.2149 39.6069 68.8875 39.6069ZM67.6532 77.5462H62.4066V42.0757H67.6532V77.5462ZM18.1938 62.7445C17.8664 62.7445 17.5524 62.8746 17.3209 63.1061C17.0894 63.3376 16.9594 63.6515 16.9594 63.9789V78.7805C16.9594 79.1078 17.0894 79.4218 17.3209 79.6533C17.5524 79.8848 17.8664 80.0148 18.1938 80.0148H25.9091C26.2364 80.0148 26.5504 79.8848 26.7819 79.6533C27.0134 79.4218 27.1434 79.1078 27.1434 78.7805V63.9789C27.1434 63.6515 27.0134 63.3376 26.7819 63.1061C26.5504 62.8746 26.2364 62.7445 25.9091 62.7445H18.1938ZM24.6747 77.5462H19.4281V65.2134H24.6747V77.5462ZM61.4847 26.59C61.4759 26.4281 61.4991 26.2661 61.5529 26.1132C61.6067 25.9603 61.6901 25.8195 61.7984 25.6988C61.9066 25.5781 62.0376 25.48 62.1838 25.4099C62.33 25.3399 62.4885 25.2993 62.6504 25.2905L68.8207 24.9555C69.0032 24.9456 69.1857 24.9764 69.3548 25.0456C69.524 25.1147 69.6757 25.2206 69.799 25.3556C69.9223 25.4905 70.014 25.6512 70.0677 25.8259C70.1213 26.0006 70.1354 26.1851 70.1091 26.366L69.2187 32.4809C69.1714 32.8048 68.9974 33.0967 68.735 33.2924C68.4725 33.4882 68.1431 33.5716 67.8192 33.5246C67.4952 33.4774 67.2033 33.3035 67.0075 33.0411C66.8118 32.7786 66.7284 32.4492 66.7755 32.1252L67.1716 29.4053C53.2443 41.71 36.6463 51.2704 17.7873 57.8379C17.6568 57.8835 17.5196 57.9068 17.3814 57.9069C17.0898 57.9066 16.8077 57.8032 16.5851 57.6148C16.3625 57.4265 16.2137 57.1655 16.1651 56.878C16.1165 56.5905 16.1712 56.295 16.3195 56.044C16.4679 55.793 16.7003 55.6026 16.9756 55.5065C35.5017 49.0547 51.8022 39.6748 65.4756 27.6096L62.784 27.7557C62.1019 27.7904 61.5217 27.2708 61.4847 26.59ZM71.2686 81.3836H15.8128C15.4854 81.3836 15.1715 81.5136 14.94 81.7451C14.7085 81.9766 14.5784 82.2906 14.5784 82.618V85.5312C14.5784 85.8586 14.7085 86.1726 14.94 86.4041C15.1715 86.6356 15.4854 86.7656 15.8128 86.7656H71.2686C71.596 86.7656 71.91 86.6356 72.1415 86.4041C72.373 86.1726 72.503 85.8586 72.503 85.5312V82.618C72.503 82.2906 72.373 81.9766 72.1415 81.7451C71.91 81.5136 71.596 81.3836 71.2686 81.3836ZM70.0343 84.2969H17.0472V83.8523H70.0343V84.2969ZM18.3442 52.6111C18.5606 52.6111 18.7731 52.554 18.9603 52.4455L56.2475 30.9177C56.3879 30.8367 56.511 30.7288 56.6097 30.6002C56.7084 30.4716 56.7808 30.3248 56.8228 30.1683C56.8647 30.0117 56.8755 29.8484 56.8543 29.6876C56.8331 29.5269 56.7805 29.3719 56.6995 29.2316L46.0877 10.8516C45.924 10.5681 45.6543 10.3612 45.3381 10.2763C45.0219 10.1918 44.6851 10.2361 44.4015 10.3996L7.11416 31.9276C6.83066 32.0913 6.62379 32.3609 6.53907 32.6771C6.45434 32.9933 6.4987 33.3302 6.66238 33.6137L17.274 51.9936C17.3824 52.1815 17.5384 52.3375 17.7263 52.4459C17.9142 52.5543 18.1273 52.6113 18.3442 52.6111ZM44.5668 13.1549L53.944 29.3968L18.7949 49.6902L9.41766 33.4485L44.5668 13.1549ZM19.8878 45.1382C20.2306 45.2345 20.5198 45.461 20.7017 45.7762C20.7827 45.9167 20.8906 46.0398 21.0192 46.1385C21.1478 46.2372 21.2946 46.3097 21.4512 46.3516C21.6078 46.3936 21.7712 46.4042 21.9319 46.383C22.0927 46.3618 22.2476 46.3091 22.388 46.228L49.1494 30.7773C49.4329 30.6136 49.6397 30.344 49.7244 30.0278C49.8092 29.7116 49.7649 29.3747 49.6014 29.0911C49.4193 28.7759 49.3676 28.4122 49.4557 28.0672C49.5412 27.7329 49.749 27.4558 50.0409 27.2871C50.1813 27.2061 50.3044 27.0982 50.4031 26.9696C50.5018 26.841 50.5742 26.6942 50.6162 26.5376C50.6582 26.3811 50.6689 26.2178 50.6477 26.057C50.6266 25.8963 50.5739 25.7413 50.4929 25.601L46.1286 18.0421C45.9648 17.7586 45.6952 17.5518 45.379 17.4671C45.0628 17.3823 44.7258 17.4267 44.4423 17.5903C44.1504 17.7591 43.8066 17.8003 43.4741 17.7071C43.1312 17.6108 42.8421 17.3843 42.6601 17.069C42.4964 16.7854 42.2268 16.5786 41.9106 16.4937C41.5944 16.4092 41.2575 16.4535 40.974 16.617L14.2126 32.068C13.9291 32.2317 13.7222 32.5013 13.6375 32.8175C13.5528 33.1337 13.5971 33.4706 13.7608 33.7542C14.1308 34.3953 13.9336 35.2045 13.3211 35.5582C13.0376 35.7219 12.8307 35.9915 12.746 36.3077C12.6612 36.6239 12.7056 36.9608 12.8693 37.2444L17.2334 44.8032C17.3972 45.0867 17.6668 45.2936 17.983 45.3784C18.2992 45.4631 18.6361 45.4187 18.9197 45.2551C19.2115 45.0865 19.5553 45.0451 19.8878 45.1382ZM15.5184 36.8955C16.2647 36.0205 16.5701 34.8321 16.3411 33.6898L41.3128 19.2723C41.7435 19.6522 42.2544 19.9298 42.8075 20.0842C43.371 20.2422 43.9481 20.2674 44.5029 20.1637L47.8425 25.9481C47.4754 26.3769 47.2085 26.8892 47.0636 27.4561C46.9208 28.0123 46.9057 28.5935 47.0193 29.1564L22.049 43.573C21.6184 43.1932 21.1074 42.9157 20.5543 42.7612C20.222 42.6675 19.8784 42.6198 19.5331 42.6194C19.3062 42.6194 19.0808 42.6403 18.8588 42.6818L15.5184 36.8955ZM19.9918 38.1717C19.8281 37.8882 19.7837 37.5512 19.8685 37.235C19.9532 36.9188 20.1601 36.6492 20.4436 36.4855L23.7301 34.588C24.0134 34.4269 24.349 34.3844 24.6636 34.4698C24.9782 34.5552 25.2462 34.7616 25.4092 35.0438C25.5722 35.3261 25.6169 35.6614 25.5336 35.9765C25.4502 36.2917 25.2457 36.5611 24.9645 36.7259L21.6779 38.6235C21.5376 38.7045 21.3826 38.7572 21.2219 38.7784C21.0612 38.7995 20.8978 38.7888 20.7413 38.7469C20.5847 38.7049 20.4379 38.6325 20.3093 38.5338C20.1807 38.4352 20.0728 38.3121 19.9918 38.1717ZM37.9453 27.806C37.7816 27.5225 37.7373 27.1856 37.822 26.8694C37.9067 26.5532 38.1136 26.2835 38.3971 26.1199L41.6838 24.2223C41.9669 24.0653 42.3003 24.0257 42.6123 24.1122C42.9243 24.1986 43.1899 24.4042 43.3517 24.6846C43.5136 24.965 43.5589 25.2977 43.4778 25.6111C43.3967 25.9246 43.1957 26.1936 42.9181 26.3602L39.6315 28.2578C39.4911 28.339 39.3361 28.3917 39.1754 28.4129C39.0147 28.4341 38.8513 28.4234 38.6947 28.3815C38.5381 28.3395 38.3913 28.2671 38.2627 28.1683C38.1341 28.0696 38.0263 27.9465 37.9453 27.806ZM28.2729 31.7031C28.5687 32.1623 29.1491 32.771 30.1815 32.8725C30.0116 32.9615 29.8646 33.0889 29.7525 33.2445C29.6403 33.4002 29.566 33.5799 29.5354 33.7693C29.5048 33.9587 29.5188 34.1526 29.5762 34.3357C29.6337 34.5188 29.733 34.6859 29.8663 34.8239C30.6105 35.5946 31.6645 35.8902 32.7222 35.6836C32.9005 35.9334 33.1654 36.1078 33.4653 36.1729C33.7652 36.2379 34.0786 36.189 34.3443 36.0356C34.6065 35.8842 34.8039 35.6417 34.899 35.3543C34.9941 35.0668 34.9803 34.7545 34.8601 34.4766C35.288 34.0177 35.5802 33.4824 35.6842 32.9396C35.8191 32.2362 35.6555 31.5519 35.2115 30.9608C34.7875 30.3967 34.0683 29.844 32.8787 29.8844C33.0698 29.7933 33.2344 29.6546 33.3564 29.4815C33.4785 29.3085 33.554 29.107 33.5757 28.8963C33.5973 28.6856 33.5644 28.473 33.4801 28.2787C33.3958 28.0844 33.263 27.9151 33.0944 27.787C32.3689 27.2359 31.4923 27.0344 30.6466 27.1715C30.4689 26.9173 30.202 26.7392 29.899 26.6729C29.5959 26.6065 29.279 26.6566 29.0113 26.8133C28.7436 26.97 28.5447 27.2218 28.4542 27.5185C28.3637 27.8152 28.3882 28.1351 28.5229 28.4146C27.7187 29.398 27.6073 30.6695 28.2729 31.7031ZM33.2377 32.4436C33.2494 32.4593 33.2561 32.4704 33.2596 32.477C33.2433 32.5826 33.047 32.8668 32.7003 33.0782C32.4459 33.2331 31.9368 33.4141 31.6421 33.1089C31.5185 32.9805 31.3685 32.8805 31.2024 32.8159C31.4818 32.7626 31.7839 32.6776 32.1103 32.5545C32.5406 32.392 33.0856 32.2408 33.2377 32.4436ZM30.5343 29.8707C30.5906 29.8185 31.0996 29.3718 31.6008 29.7525C31.7521 29.8678 31.928 29.9464 32.1149 29.9821C31.8427 30.0407 31.5511 30.1268 31.2386 30.2445C30.5927 30.4882 30.3767 30.4021 30.3764 30.4021C30.3764 30.4021 30.3658 30.3934 30.3485 30.3664C30.2272 30.1782 30.4601 29.9393 30.5343 29.8707Z" fill="url(#paint0_linear_4014_11)"/>
</g>
<defs>
<linearGradient id="paint0_linear_4014_11" x1="13.6497" y1="85.114" x2="71.6044" y2="27.1594" gradientUnits="userSpaceOnUse">
<stop stop-color="#78438C"/>
<stop offset="1" stop-color="#DC2434"/>
</linearGradient>
<clipPath id="clip0_4014_11">
<rect width="79" height="79" fill="white" transform="translate(0 15)"/>
</clipPath>
</defs>
</svg>
