<svg width="92" height="94" viewBox="0 0 92 94" fill="none" xmlns="http://www.w3.org/2000/svg">
<ellipse cx="55" cy="37.5" rx="37" ry="37.5" fill="white" fill-opacity="0.4"/>
<g clip-path="url(#clip0_4014_7)">
<g clip-path="url(#clip1_4014_7)">
<path d="M30.6875 44.7969H36.8594V54.6719H30.6875V44.7969ZM41.7969 37.3906H47.9688V54.6719H41.7969V37.3906ZM52.9063 42.3281H59.0781V54.6719H52.9063V42.3281ZM64.0156 34.9219H70.1875V54.6719H64.0156V34.9219ZM80.0625 12.7031H73.8906V15.1719H77.0827L65.25 27.0046L55.0133 16.7679C54.7819 16.5365 54.4679 16.4065 54.1406 16.4065C53.8133 16.4065 53.4994 16.5365 53.2679 16.7679L39.3281 30.7077L31.5602 22.9398C31.3287 22.7084 31.0148 22.5784 30.6875 22.5784C30.3602 22.5784 30.0463 22.7084 29.8148 22.9398L12.5335 40.221L14.279 41.9665L30.6875 25.5579L38.4554 33.3258C38.6869 33.5572 39.0008 33.6872 39.3281 33.6872C39.6554 33.6872 39.9694 33.5572 40.2008 33.3258L54.1406 19.386L64.3773 29.6227C64.6088 29.8541 64.9227 29.9841 65.25 29.9841C65.5773 29.9841 65.8912 29.8541 66.1227 29.6227L78.8281 16.9173V20.1094H81.2969V13.9375C81.2969 13.6101 81.1668 13.2962 80.9353 13.0647C80.7039 12.8332 80.3899 12.7031 80.0625 12.7031ZM80.8871 57.3529C80.266 56.4012 79.3149 55.7127 78.2168 55.4199C77.1187 55.1271 75.9511 55.2506 74.9386 55.7668L68.1891 59.223C68.6496 60.3199 68.6996 61.546 68.3298 62.6767C67.9601 63.8075 67.1954 64.7672 66.1758 65.3801L52.4384 73.527C49.2169 75.4464 45.3798 76.0511 41.724 75.2156L29.3112 72.2444L29.8852 69.8436L42.2733 72.8061C45.3118 73.4972 48.4996 72.9948 51.1781 71.4026L64.9143 63.2557C65.4753 62.9206 65.8816 62.378 66.0452 61.7453C66.2088 61.1127 66.1164 60.441 65.7882 59.876C65.0703 58.6332 63.9022 57.7139 62.5254 57.3084C61.1487 56.9029 59.6688 57.0421 58.3918 57.6973L48.4292 62.8101C47.7322 63.1683 46.9589 63.3527 46.1753 63.3475C45.3916 63.3424 44.6209 63.1478 43.9286 62.7805L37.1396 59.1749C34.889 57.9844 32.3655 57.4052 29.8211 57.4951C27.2767 57.585 24.8003 58.3408 22.6394 59.6871L26.5104 78.1398L28.5718 77.6954C29.6543 77.4627 30.7688 77.4185 31.8663 77.5646L47.2849 79.2557C50.1852 79.6424 53.1268 78.9549 55.5552 77.3227L80.2094 60.782C80.7499 60.4142 81.1242 59.8488 81.2516 59.2076C81.3791 58.5663 81.2495 57.9007 80.8908 57.3542L80.8871 57.3529ZM9.70312 57.7418L15.2751 84.2969L24.8526 82.2355L19.2794 55.6804L9.70312 57.7418ZM14.5505 63.0002L14.0432 60.5858L16.4589 60.0784L16.9662 62.4916L14.5505 63.0002Z" fill="url(#paint0_linear_4014_7)"/>
</g>
</g>
<defs>
<linearGradient id="paint0_linear_4014_7" x1="45.5013" y1="12.7031" x2="45.5013" y2="84.2969" gradientUnits="userSpaceOnUse">
<stop stop-color="#814199"/>
<stop offset="1" stop-color="#D62631"/>
</linearGradient>
<clipPath id="clip0_4014_7">
<rect width="79" height="79" fill="white" transform="translate(0 15)"/>
</clipPath>
<clipPath id="clip1_4014_7">
<rect width="79" height="79" fill="white" transform="translate(0 9)"/>
</clipPath>
</defs>
</svg>
