<svg width="79" height="80" viewBox="0 0 79 80" fill="none" xmlns="http://www.w3.org/2000/svg">
<ellipse cx="42" cy="37.5" rx="37" ry="37.5" fill="white" fill-opacity="0.4"/>
<path d="M9.72985 41.6743C9.78395 41.6743 9.83795 41.67 9.89137 41.6615L24.9301 39.2788C25.0987 39.2521 25.258 39.184 25.3937 39.0806C25.5295 38.9771 25.6374 38.8416 25.7079 38.6862L31.9967 24.8194C32.0736 24.6498 32.1032 24.4626 32.0822 24.2776C32.0613 24.0926 31.9906 23.9167 31.8778 23.7686C31.765 23.6205 31.6141 23.5057 31.4413 23.4364C31.2685 23.3671 31.0802 23.3459 30.8963 23.375L15.8575 25.7576C15.689 25.7843 15.5297 25.8524 15.3939 25.9558C15.2582 26.0592 15.1502 26.1947 15.0797 26.3502L8.7909 40.2171C8.71968 40.3742 8.68898 40.5466 8.70161 40.7186C8.71425 40.8906 8.76981 41.0566 8.86323 41.2016C8.95664 41.3466 9.08491 41.4658 9.23631 41.5484C9.38771 41.6309 9.5574 41.6742 9.72985 41.6743ZM17.2616 36.2012L21.0499 37.8054L13.6085 38.9844L17.2616 36.2012ZM17.9012 33.121L17.1735 27.6374L27.1791 26.0521L17.9012 33.121ZM16.0117 34.5606L12.3586 37.3438L15.4704 30.4824L16.0117 34.5606ZM24.245 36.9185L19.1511 34.7615L28.429 27.6926L24.245 36.9185ZM10.4253 20.4013C11.5319 19.5571 12.6963 18.7915 13.91 18.1102L12.9025 16.3105C11.6043 17.0392 10.3589 17.8579 9.1753 18.7608C6.51119 20.7904 4.18817 23.2246 2.45709 25.7997L4.16871 26.9502C5.77527 24.5603 7.9387 22.2958 10.4253 20.4013Z" fill="url(#paint0_linear_4014_7)"/>
<path d="M63.7713 49.7679C63.1549 45.2402 60.8934 40.4585 57.4034 36.3037C52.8902 30.9309 47.0566 27.4684 41.7169 26.9707C41.4167 26.2465 41.0243 25.5641 40.5494 24.9403L36.7995 20.0186C34.5742 17.0977 30.7465 15.7182 26.0209 16.1338C21.4689 16.5344 16.5852 18.5659 12.2692 21.8544C7.95286 25.1428 4.69785 29.3123 3.10367 33.5946C1.44851 38.0402 1.76266 42.0968 3.98796 45.0177L6.14366 47.847C5.71464 48.4345 5.35821 49.0718 5.08212 49.7449L2.73938 55.4718C1.349 58.8704 2.09949 62.8696 4.85241 66.7326C7.50427 70.4538 11.7306 73.6347 16.7526 75.6892C20.4175 77.1884 24.1998 77.9628 27.7255 77.9627C28.9967 77.9663 30.2658 77.8589 31.5183 77.6415C36.1895 76.8156 39.5278 74.4891 40.9182 71.0904L43.1199 65.7085C43.5118 65.8606 43.9043 65.9996 44.2976 66.1255C45.8537 66.6404 47.4799 66.9119 49.1188 66.9304C51.6603 66.9304 53.9038 66.1789 55.666 64.6988L60.4037 60.7192C63.2154 58.3573 64.4114 54.4682 63.7713 49.7679ZM34.391 56.9802L37.5484 54.3281C38.9366 55.885 40.48 57.2962 42.1545 58.5399L39.0427 61.1537C37.3433 59.9381 35.7832 58.5385 34.391 56.9804V56.9802ZM33.0651 55.4005C32.635 54.851 32.2263 54.2894 31.8392 53.7156C31.7943 53.6374 31.7469 53.5608 31.697 53.4857L31.688 53.4916C30.9256 52.3436 30.25 51.1404 29.6667 49.8918C30.5513 49.3458 31.4185 48.7498 32.2684 48.1036C32.49 47.9348 32.7085 47.7634 32.9241 47.5897C33.8475 49.4157 34.9525 51.1441 36.2221 52.7488L33.0651 55.4005ZM30.1758 56.5585C29.9687 57.0647 29.569 57.468 29.0646 57.6795C28.5602 57.8911 27.9924 57.8937 27.4862 57.6866L27.4859 57.6865L22.7135 55.7342L23.9894 52.6155C25.3233 52.1486 26.6201 51.5818 27.8687 50.9201C28.5106 52.2783 29.2558 53.5852 30.0978 54.8292C30.2354 55.0945 30.3137 55.3866 30.3271 55.6852C30.3406 55.9838 30.2889 56.2818 30.1758 56.5585ZM27.8261 60.7067C27.9839 61.0828 28.0265 61.4974 27.9487 61.8978C27.8709 62.2982 27.6761 62.6666 27.3889 62.9563C27.1017 63.2461 26.7351 63.4441 26.3353 63.5254C25.9356 63.6068 25.5207 63.5678 25.1432 63.4133L20.3708 61.461L21.9326 57.6431L26.705 59.5954C26.9561 59.6973 27.1844 59.848 27.3769 60.0388C27.5693 60.2295 27.722 60.4566 27.8261 60.7068V60.7067ZM13.1495 48.975C13.2598 48.975 13.3711 48.9734 13.4826 48.9712L15.6193 51.7758C12.9007 51.5262 10.7339 50.4687 9.37844 48.6895L9.19964 48.4549C10.4858 48.8105 11.8151 48.9856 13.1495 48.975ZM18.3359 51.7697C18.2951 51.7732 18.2552 51.7758 18.2147 51.779L15.9193 48.7665C17.4034 48.5442 18.8629 48.1805 20.2778 47.6804L22.7086 50.8709C21.2883 51.3296 19.822 51.631 18.3359 51.7696V51.7697ZM27.6884 43.7938L30.1874 47.0739C28.4874 48.2888 26.6584 49.3122 24.7337 50.1256L22.2709 46.8931C24.1774 46.0468 25.9926 45.0084 27.6884 43.7938ZM31.828 45.824L29.3289 42.5439C30.95 41.2313 32.433 39.7568 33.755 38.1433L36.2179 41.3759C34.9227 43.0156 33.4505 44.5073 31.828 45.8239V45.824ZM37.4738 39.6212L35.043 36.4308C35.9007 35.1993 36.6387 33.8887 37.2469 32.5168L39.5422 35.5293C39.5283 35.5676 39.5152 35.6055 39.501 35.6438C38.9729 37.0398 38.2931 38.3736 37.4738 39.6212ZM40.228 33.0264L38.0915 30.2223C38.5145 28.8396 38.7298 27.4018 38.7303 25.9559L38.9089 26.1902C40.2644 27.9691 40.709 30.3391 40.228 33.0264ZM5.03636 34.3143C6.49635 30.3927 9.50889 26.5502 13.5189 23.4952C17.5288 20.44 22.0329 18.5553 26.2015 18.1885C26.6917 18.1453 27.169 18.1239 27.6336 18.124C30.9557 18.124 33.5962 19.2177 35.1589 21.2686C36.94 23.6063 37.1503 26.9636 35.751 30.7222C34.291 34.6439 31.2784 38.4862 27.2686 41.5415C23.2585 44.5966 18.7543 46.4812 14.5859 46.8481C10.5912 47.1995 7.41107 46.1061 5.62959 43.7694L5.62843 43.7679C3.84733 41.4301 3.63708 38.0728 5.03636 34.3144V34.3143ZM7.73785 49.9396C9.70341 52.5196 12.9188 53.8969 16.8992 53.8969C17.4252 53.8969 17.9642 53.8727 18.5165 53.8244C19.5077 53.7349 20.4916 53.5763 21.4607 53.3496L18.4617 60.6802L16.5528 59.8992L15.7718 61.8082L17.6808 62.5891L16.8999 64.4981L18.8088 65.279L19.5897 63.37L21.4986 64.1509L20.7177 66.0599L22.6266 66.8409L23.4076 64.9318L24.3621 65.3224C25.1172 65.6313 25.947 65.7093 26.7464 65.5467C27.5459 65.384 28.2792 64.9879 28.8535 64.4085C29.4279 63.8291 29.8175 63.0924 29.9731 62.2915C30.1288 61.4906 30.0435 60.6616 29.728 59.9092C29.6937 59.8285 29.657 59.7487 29.6177 59.6703C30.1562 59.4842 30.6502 59.1884 31.0684 58.8014C31.4865 58.4145 31.8197 57.9449 32.0469 57.4224C32.0765 57.4577 32.105 57.4935 32.1348 57.5289C34.7998 60.7016 37.9487 63.2308 41.2269 64.8681C40.0397 67.4344 37.3115 69.2102 33.5021 69.8838C29.3813 70.6123 24.5422 69.9624 19.8763 68.0535C15.2104 66.1447 11.3033 63.2167 8.87467 59.809C6.54714 56.5429 5.87812 53.2462 6.99097 50.526C7.12529 50.2003 7.28431 49.8853 7.46663 49.5837L7.73785 49.9396ZM18.147 69.5568L16.5857 73.3734C14.6769 72.5234 12.8678 71.4653 11.1912 70.2183L12.73 66.457C14.4257 67.6718 16.2408 68.7104 18.1472 69.5568H18.147ZM20.0568 70.3361C22.0095 71.069 24.0319 71.6008 26.0925 71.9234L24.5538 75.6849C22.4839 75.3993 20.4519 74.886 18.4947 74.1544L20.0568 70.3361ZM4.64835 56.2527L4.75986 55.9801C5.1359 57.3761 5.71726 58.7086 6.48488 59.9339L5.15018 63.1967C3.98758 60.7266 3.80157 58.3228 4.64835 56.2527ZM6.53206 65.5356C6.50834 65.5024 6.48591 65.4691 6.46245 65.4358L7.89653 61.9305C8.84018 63.0974 9.89323 64.1713 11.0413 65.1377L9.52281 68.8499C8.40758 67.858 7.40465 66.7465 6.53206 65.5356ZM26.7031 75.8784L28.2221 72.1654C28.8437 72.2113 29.46 72.2359 30.0683 72.2359C30.9521 72.2367 31.8352 72.1854 32.7129 72.0822L31.2788 75.588C31.2389 75.5953 31.1996 75.6035 31.1593 75.6104C29.6882 75.8627 28.1938 75.9526 26.7031 75.8785V75.8784ZM33.7843 74.9108L35.1191 71.648C36.5254 71.312 37.874 70.7689 39.1207 70.0366L39.0092 70.3094C38.1623 72.3794 36.3447 73.9636 33.7843 74.9108ZM40.8552 62.3248L43.9263 59.7451C45.1972 60.5433 46.5414 61.218 47.9407 61.7602L45.0407 64.1963C45.0019 64.1842 44.9634 64.1729 44.9245 64.1604C43.5049 63.6994 42.1403 63.0838 40.8552 62.3248ZM54.3393 63.1195C52.6267 64.5581 50.2808 65.115 47.5735 64.7622L50.2729 62.4947C51.4449 62.7897 52.6481 62.9428 53.8566 62.9508C54.0964 62.9508 54.3324 62.9418 54.5667 62.9285L54.3393 63.1195ZM59.0771 59.1399C56.8266 61.0301 53.4831 61.3997 49.6623 60.1809C45.6756 58.9089 41.6945 56.0825 38.452 52.2224C36.9002 50.3881 35.586 48.3655 34.5404 46.2023C37.7265 43.2758 40.1331 39.8574 41.4339 36.3634C42.3998 33.769 42.6937 31.3077 42.3298 29.1266C46.8768 29.8433 51.946 33.0133 55.8241 37.6302C59.0665 41.4903 61.1632 45.8997 61.7277 50.0461C62.2688 54.02 61.3274 57.2497 59.0771 59.1399Z" fill="url(#paint1_linear_4014_7)"/>
<path d="M53.9704 42.1117C53.0989 42.0362 52.2259 42.2396 51.4773 42.6924C50.7288 43.1452 50.1435 43.824 49.8057 44.631L48.087 44.1291L47.8894 42.3502C48.8682 42.1295 49.7329 41.5597 50.3219 40.7475C50.9109 39.9352 51.1838 38.9362 51.0895 37.9374C50.9952 36.9385 50.5402 36.0082 49.8096 35.3206C49.0789 34.633 48.1228 34.2351 47.1201 34.2015C46.1173 34.1679 45.1367 34.5008 44.3616 35.1379C43.5866 35.775 43.0702 36.6727 42.9092 37.663C42.7482 38.6533 42.9535 39.6683 43.4868 40.5182C44.02 41.3681 44.8447 41.9945 45.8064 42.2803L46.0521 44.4916L45.5857 44.8833C44.7689 44.301 43.7678 44.0365 42.7699 44.1395C41.7721 44.2425 40.846 44.7058 40.1654 45.4427C39.4847 46.1796 39.0961 47.1394 39.0724 48.1423C39.0488 49.1451 39.3916 50.1222 40.0368 50.8904C40.6819 51.6585 41.5851 52.165 42.577 52.315C43.5688 52.4649 44.5813 52.248 45.4247 51.7049C46.2681 51.1617 46.8845 50.3297 47.1583 49.3646C47.4321 48.3996 47.3446 47.3678 46.9122 46.4627L47.3788 46.0708L49.5143 46.6946C49.6238 47.6388 50.0559 48.5162 50.7376 49.1787C51.4192 49.8412 52.3086 50.2481 53.2555 50.3308C53.3776 50.3413 53.499 50.3466 53.6199 50.3466C54.5886 50.3475 55.5262 50.005 56.2661 49.3798C56.8908 48.8551 57.3459 48.1569 57.5738 47.3735C57.8016 46.5901 57.7921 45.7568 57.5464 44.9788C57.3006 44.2009 56.8297 43.5133 56.1932 43.0029C55.5567 42.4926 54.7831 42.1825 53.9703 42.1118L53.9704 42.1117ZM45.4008 39.6514C45.0939 39.286 44.9232 38.8255 44.9178 38.3484C44.9124 37.8712 45.0726 37.407 45.3711 37.0347C45.6696 36.6625 46.0879 36.4052 46.5548 36.3068C47.0217 36.2084 47.5083 36.2749 47.9317 36.4951C48.355 36.7152 48.6889 37.0753 48.8765 37.514C49.0642 37.9528 49.0938 38.443 48.9605 38.9011C48.8272 39.3593 48.5392 39.7571 48.1455 40.0267C47.7518 40.2963 47.2768 40.421 46.8015 40.3797C46.5314 40.3569 46.2686 40.2808 46.0282 40.1558C45.7878 40.0308 45.5745 39.8594 45.4008 39.6514ZM45.2445 48.4213C45.2098 48.8199 45.0599 49.1998 44.8131 49.5147C44.5662 49.8296 44.2331 50.0659 43.8543 50.1948C43.4755 50.3237 43.0674 50.3396 42.6797 50.2406C42.2921 50.1416 41.9415 49.932 41.6709 49.6373C41.4003 49.3426 41.2212 48.9755 41.1555 48.5808C41.0899 48.1862 41.1404 47.7809 41.301 47.4144C41.4617 47.048 41.7254 46.7361 42.0601 46.5169C42.3949 46.2978 42.7862 46.1807 43.1863 46.18C43.2467 46.18 43.3074 46.1825 43.3686 46.1878C43.9135 46.2352 44.4173 46.4972 44.7691 46.916C45.1209 47.3349 45.2919 47.8763 45.2445 48.4213ZM55.6678 46.4C55.645 46.67 55.5689 46.9328 55.4439 47.1732C55.3189 47.4136 55.1474 47.6268 54.9394 47.8005C54.6856 48.0136 54.3842 48.1625 54.0606 48.2344C53.7371 48.3064 53.4009 48.2993 53.0807 48.2137C52.7605 48.1282 52.4656 47.9667 52.221 47.743C51.9764 47.5193 51.7893 47.24 51.6756 46.9286C51.5619 46.6173 51.5249 46.2831 51.5678 45.9544C51.6106 45.6258 51.7321 45.3123 51.9218 45.0405C52.1115 44.7687 52.364 44.5466 52.6577 44.3931C52.9515 44.2396 53.2779 44.1592 53.6094 44.1586C53.6699 44.1586 53.7306 44.1613 53.7917 44.1666C54.0615 44.19 54.3241 44.2664 54.5644 44.3914C54.8047 44.5163 55.0181 44.6873 55.1923 44.8947C55.3665 45.1021 55.4981 45.3418 55.5797 45.6001C55.6613 45.8584 55.6912 46.1302 55.6678 46.4ZM58.9179 34.0603C59.2436 34.4482 59.5597 34.8441 59.8657 35.2477L61.5093 34.0018C61.1825 33.5708 60.845 33.148 60.4971 32.7338C57.2132 28.8243 53.1408 25.8552 49.0299 24.3734L48.3304 26.3136C52.1044 27.6741 55.8643 30.4252 58.9179 34.0603ZM46.6219 23.6799C45.8935 23.5226 45.1547 23.4182 44.4113 23.3674L44.2762 25.4255C44.92 25.4697 45.5598 25.5604 46.1906 25.6968L46.6219 23.6799ZM46.5309 69.6951L46.3927 69.6971L46.4198 71.7595L46.568 71.7572C47.2288 71.7456 47.8957 71.7135 48.5499 71.6618L48.3875 69.6057C47.7752 69.6542 47.1507 69.6842 46.5309 69.6951ZM50.3799 69.3799L50.6826 71.4201C54.2943 70.8842 57.6371 69.7269 60.3492 68.0733L59.2756 66.3122C56.797 67.8235 53.7211 68.8842 50.3799 69.3799Z" fill="url(#paint2_linear_4014_7)"/>
<defs>
<linearGradient id="paint0_linear_4014_7" x1="17.2729" y1="16.3105" x2="17.2729" y2="41.6743" gradientUnits="userSpaceOnUse">
<stop stop-color="#7E4196"/>
<stop offset="1" stop-color="#D82731"/>
</linearGradient>
<linearGradient id="paint1_linear_4014_7" x1="32.9979" y1="16.0613" x2="32.9979" y2="77.9628" gradientUnits="userSpaceOnUse">
<stop stop-color="#7E4196"/>
<stop offset="1" stop-color="#D82731"/>
</linearGradient>
<linearGradient id="paint2_linear_4014_7" x1="50.2903" y1="23.3674" x2="50.2903" y2="71.7595" gradientUnits="userSpaceOnUse">
<stop stop-color="#7E4196"/>
<stop offset="1" stop-color="#D82731"/>
</linearGradient>
</defs>
</svg>
