<svg width="32" height="32" viewBox="0 0 32 32" fill="none" xmlns="http://www.w3.org/2000/svg">
<path d="M31.2422 27.3701L23.8852 20.0126C25.1789 17.9562 25.8638 15.5756 25.8607 13.1461C25.8607 6.00464 20.0713 0.216064 12.9301 0.216064C5.78884 0.216064 0 6.00464 0 13.1461C0 20.2879 5.78857 26.0759 12.9301 26.0759C15.5714 26.0793 18.1498 25.27 20.3154 23.7577L27.5848 31.0277C27.8249 31.2679 28.11 31.4583 28.4238 31.5881C28.7376 31.7178 29.0739 31.7843 29.4135 31.7837C29.7532 31.7843 30.0897 31.7178 30.4036 31.5881C30.7175 31.4584 31.0028 31.2679 31.243 31.0277C31.7278 30.5426 32.0001 29.8847 31.9999 29.1988C31.9998 28.5129 31.7272 27.8551 31.2422 27.3701ZM12.9301 21.8868C8.10325 21.8868 4.18996 17.9738 4.18996 13.1467C4.18996 8.31958 8.10325 4.40629 12.9301 4.40629C17.7572 4.40629 21.6702 8.31958 21.6702 13.1467C21.6702 17.9738 17.7572 21.8868 12.9301 21.8868Z" fill="#D92832"/>
</svg>
